# xmcd CD database file
#
# Track frame offsets:
#	150
#	16687
#	32932
#
# Disc length: 630 seconds
#
# Revision: 0
# Processed by: cddbd v1.5.1PL2 Copyright (c) Steve Scherf et al.
# Submitted via: CDex 1.51
#
DISCID=18027403
DTITLE=和泉宏隆 - Special Christmas Gift
DYEAR=2005
DGENRE=Fusion
TTITLE0=The Christmas Song
TTITLE1=White Christmas
TTITLE2=Silent Night
EXTD=YEAR: 2005
EXTT0=
EXTT1=
EXTT2=
PLAYORDER=
